HIERARCHY
ROOT Hips
{
  OFFSET -2.9740628571428576 95.22824285714285 -3.405862857142857
  CHANNELS 6 Xposition Zposition Yposition Zrotation Xrotation Yrotation
  JOINT LeftUpLeg
  {
    OFFSET 8.64259 1.9539799999999998 -2.3883499999999995
    CHANNELS 3 Zrotation Xrotation Yrotation
    JOINT LeftLeg
    {
      OFFSET 43.770199999999996 0.0 0.0
      CHANNELS 3 Zrotation Xrotation Yrotation
      JOINT LeftFoot
      {
        OFFSET 40.62380000000001 0.0 0.0
        CHANNELS 3 Zrotation Xrotation Yrotation
        JOINT LeftToeBase
        {
          OFFSET 12.724199999999998 0.0 0.0
          CHANNELS 3 Zrotation Xrotation Yrotation
          End Site
          {
            OFFSET 0.0 0.0 0.0
          }
        }
      }
    }
  }
  JOINT RightUpLeg
  {
    OFFSET -8.2249 1.9539799999999998 -2.59336
    CHANNELS 3 Zrotation Xrotation Yrotation
    JOINT RightLeg
    {
      OFFSET 43.56529999999999 0.0 0.0
      CHANNELS 3 Zrotation Xrotation Yrotation
      JOINT RightFoot
      {
        OFFSET 40.62380000000001 0.0 0.0
        CHANNELS 3 Zrotation Xrotation Yrotation
        JOINT RightToeBase
        {
          OFFSET 12.724199999999998 0.0 0.0
          CHANNELS 3 Zrotation Xrotation Yrotation
          End Site
          {
            OFFSET 0.0 0.0 0.0
          }
        }
      }
    }
  }
  JOINT Spine
  {
    OFFSET 0.16583 0.8771399999999999 6.61349
    CHANNELS 3 Zrotation Xrotation Yrotation
    JOINT Spine1
    {
      OFFSET 7.389628571428571 2e-05 0.0
      CHANNELS 3 Zrotation Xrotation Yrotation
      JOINT Spine2
      {
        OFFSET 11.944500000000001 1e-05 0.0
        CHANNELS 3 Zrotation Xrotation Yrotation
        JOINT Spine3
        {
          OFFSET 14.725400000000004 4e-05 0.0
          CHANNELS 3 Zrotation Xrotation Yrotation
          JOINT Spine4
          {
            OFFSET 10.9679 0.0 0.0
            CHANNELS 3 Zrotation Xrotation Yrotation
            JOINT RightShoulder
            {
              OFFSET 2.46616 -1.6653 3.69651
              CHANNELS 3 Zrotation Xrotation Yrotation
              JOINT RightArm
              {
                OFFSET 13.001199999999999 0.0 0.0
                CHANNELS 3 Zrotation Xrotation Yrotation
                JOINT RightForeArm
                {
                  OFFSET 28.784799999999997 2e-05 0.0
                  CHANNELS 3 Zrotation Xrotation Yrotation
                  JOINT RightHand
                  {
                    OFFSET 26.568800000000003 2e-05 0.0
                    CHANNELS 3 Zrotation Xrotation Yrotation
                    JOINT RightHandMiddle1
                    {
                      OFFSET 8.03675 -0.8865800000000001 0.7278700000000001
                      CHANNELS 3 Zrotation Xrotation Yrotation
                      JOINT RightHandMiddle2
                      {
                        OFFSET 2.7883299999999993 0.0 0.0
                        CHANNELS 3 Zrotation Xrotation Yrotation
                        JOINT RightHandMiddle3
                        {
                          OFFSET 2.4115500000000005 0.0 0.0
                          CHANNELS 3 Zrotation Xrotation Yrotation
                          End Site
                          {
                            OFFSET 0.0 0.0 0.0
                          }
                        }
                      }
                    }
                    JOINT RightHandRing1
                    {
                      OFFSET 7.979660000000002 -0.8867700000000002 -1.00486
                      CHANNELS 3 Zrotation Xrotation Yrotation
                      JOINT RightHandRing2
                      {
                        OFFSET 2.8636799999999996 0.0 0.0
                        CHANNELS 3 Zrotation Xrotation Yrotation
                        JOINT RightHandRing3
                        {
                          OFFSET 2.11079 0.0 0.0
                          CHANNELS 3 Zrotation Xrotation Yrotation
                          End Site
                          {
                            OFFSET 0.0 0.0 0.0
                          }
                        }
                      }
                    }
                    JOINT RightHandPinky1
                    {
                      OFFSET 8.03707 -0.8875299999999999 -2.6069600000000004
                      CHANNELS 3 Zrotation Xrotation Yrotation
                      JOINT RightHandPinky2
                      {
                        OFFSET 1.8462757142857142 0.0 0.0
                        CHANNELS 3 Zrotation Xrotation Yrotation
                        JOINT RightHandPinky3
                        {
                          OFFSET 1.8843400000000001 0.0 0.0
                          CHANNELS 3 Zrotation Xrotation Yrotation
                          End Site
                          {
                            OFFSET 0.0 0.0 0.0
                          }
                        }
                      }
                    }
                    JOINT RightHandIndex1
                    {
                      OFFSET 7.92262 -0.8855000000000002 2.31175
                      CHANNELS 3 Zrotation Xrotation Yrotation
                      JOINT RightHandIndex2
                      {
                        OFFSET 2.63761 0.0 0.0
                        CHANNELS 3 Zrotation Xrotation Yrotation
                        JOINT RightHandIndex3
                        {
                          OFFSET 2.16656 0.0 0.0
                          CHANNELS 3 Zrotation Xrotation Yrotation
                          End Site
                          {
                            OFFSET 0.0 0.0 0.0
                          }
                        }
                      }
                    }
                    JOINT RightHandThumb1
                    {
                      OFFSET 3.4769 0.059800000000000006 2.8878899999999996
                      CHANNELS 3 Zrotation Xrotation Yrotation
                      JOINT RightHandThumb2
                      {
                        OFFSET 2.7768599999999997 0.00010000000000000002 -2e-05
                        CHANNELS 3 Zrotation Xrotation Yrotation
                        JOINT RightHandThumb3
                        {
                          OFFSET 2.420578571428571 -9e-05 0.0
                          CHANNELS 3 Zrotation Xrotation Yrotation
                          End Site
                          {
                            OFFSET 0.0 0.0 0.0
                          }
                        }
                      }
                    }
                  }
                }
              }
            }
            JOINT LeftShoulder
            {
              OFFSET 2.3803400000000003 -1.29275 -3.7523014285714282
              CHANNELS 3 Zrotation Xrotation Yrotation
              JOINT LeftArm
              {
                OFFSET 16.3182 5.9999999999999995e-05 0.0
                CHANNELS 3 Zrotation Xrotation Yrotation
                JOINT LeftForeArm
                {
                  OFFSET 27.090100000000003 0.0 0.0
                  CHANNELS 3 Zrotation Xrotation Yrotation
                  JOINT LeftHand
                  {
                    OFFSET 24.545099999999998 2e-05 0.0
                    CHANNELS 3 Zrotation Xrotation Yrotation
                    JOINT LeftHandMiddle1
                    {
                      OFFSET 9.218019999999997 0.66582 0.5455300000000002
                      CHANNELS 3 Zrotation Xrotation Yrotation
                      JOINT LeftHandMiddle2
                      {
                        OFFSET 2.66255 0.0 0.0
                        CHANNELS 3 Zrotation Xrotation Yrotation
                        JOINT LeftHandMiddle3
                        {
                          OFFSET 2.2804 0.0 0.0
                          CHANNELS 3 Zrotation Xrotation Yrotation
                          End Site
                          {
                            OFFSET 0.0 0.0 0.0
                          }
                        }
                      }
                    }
                    JOINT LeftHandRing1
                    {
                      OFFSET 9.247749999999998 0.66519 -1.1266999999999998
                      CHANNELS 3 Zrotation Xrotation Yrotation
                      JOINT LeftHandRing2
                      {
                        OFFSET 2.4704099999999998 0.0 -2e-05
                        CHANNELS 3 Zrotation Xrotation Yrotation
                        JOINT LeftHandRing3
                        {
                          OFFSET 2.2054000000000005 0.0 0.0
                          CHANNELS 3 Zrotation Xrotation Yrotation
                          End Site
                          {
                            OFFSET 0.0 0.0 0.0
                          }
                        }
                      }
                    }
                    JOINT LeftHandPinky1
                    {
                      OFFSET 9.35383857142857 0.66301 -2.7233200000000006
                      CHANNELS 3 Zrotation Xrotation Yrotation
                      JOINT LeftHandPinky2
                      {
                        OFFSET 1.63407 0.0 0.0
                        CHANNELS 3 Zrotation Xrotation Yrotation
                        JOINT LeftHandPinky3
                        {
                          OFFSET 1.71176 0.0 0.0
                          CHANNELS 3 Zrotation Xrotation Yrotation
                          End Site
                          {
                            OFFSET 0.0 0.0 0.0
                          }
                        }
                      }
                    }
                    JOINT LeftHandIndex1
                    {
                      OFFSET 8.731608571428572 0.6758999999999998 2.0680099999999997
                      CHANNELS 3 Zrotation Xrotation Yrotation
                      JOINT LeftHandIndex2
                      {
                        OFFSET 2.6668899999999995 0.0 0.0
                        CHANNELS 3 Zrotation Xrotation Yrotation
                        JOINT LeftHandIndex3
                        {
                          OFFSET 2.12946 0.0 2e-05
                          CHANNELS 3 Zrotation Xrotation Yrotation
                          End Site
                          {
                            OFFSET 0.0 0.0 0.0
                          }
                        }
                      }
                    }
                    JOINT LeftHandThumb1
                    {
                      OFFSET 4.967354285714285 -0.62265 3.3958599999999994
                      CHANNELS 3 Zrotation Xrotation Yrotation
                      JOINT LeftHandThumb2
                      {
                        OFFSET 2.15386 2e-05 0.0
                        CHANNELS 3 Zrotation Xrotation Yrotation
                        JOINT LeftHandThumb3
                        {
                          OFFSET 2.1951099999999997 -2.9999999999999997e-05 2e-05
                          CHANNELS 3 Zrotation Xrotation Yrotation
                          End Site
                          {
                            OFFSET 0.0 0.0 0.0
                          }
                        }
                      }
                    }
                  }
                }
              }
            }
            JOINT Neck
            {
              OFFSET 5.0226 -0.026629999999999994 0.0
              CHANNELS 3 Zrotation Xrotation Yrotation
              JOINT Head
              {
                OFFSET 6.693637142857143 2.9999999999999997e-05 0.0
                CHANNELS 3 Zrotation Xrotation Yrotation
                End Site
                {
                  OFFSET 0.0 0.0 0.0
                }
              }
            }
          }
        }
      }
    }
  }
}
MOTION
Frames: 4
Frame Time: 0.03333333
0.0 4.440892098500626e-16 81.4252 -106.50600000000001 -84.8204 -111.921 -164.415 -0.3788729999999987 104.945 18.791900000000002 14.4899 -61.4768 35.0626 29.3741 28.4674 28.7808 4.3412800000000006e-06 1.4068399999999997e-05 177.28 18.6598 61.9807 -52.0122 -0.2780269999999998 0.102051 79.2604 15.6119 6.17438 28.7808 1.37302e-05 2.8185500000000003e-05 1.1194600000000001 4.89459 -95.8585 16.9715 1.57948 -6.04716 5.28722 1.31231 -6.11048 -17.1643 3.3214900000000003 -5.29649 2.8483400000000008 3.3214900000000003 -5.2965 101.537 10.6755 -86.5534 36.9623 -60.9669 -37.9334 -35.1945 -1.29102 -90.9504 -38.8806 3.2963 -14.6614 -89.4043 88.9709 89.0941 -0.0604883 5.8114300000000546e-08 4.7447299999999996e-07 -0.0639203 -1.0345899999999999e-05 -1.94802e-07 -89.3948 88.98100000000001 89.0846 -1.1574200000000001 1.1562300000000064e-08 9.4087e-08 2.576 -2.0703e-05 1.45929e-07 -88.8572 89.3579 88.54700000000001 -1.14578 -5.0929e-06 0.000261404 1.1457700000000002 6.9188e-06 2.2698e-07 -89.4226 88.9487 89.1123 0.409285 3.75267e-06 0.0008097060000000001 -0.636601 -6.9421e-06 -5.06798e-07 104.36399999999999 40.5023 -88.8246 -7.66902 0.186182 -1.3504399999999999 -11.2634 -1.08249e-05 6.2878e-05 -87.0163 -35.1519 80.31 -36.9248 14.806 13.189000000000004 20.5969 -4.721470000000002 -102.00399999999999 -44.8219 17.2474 -47.2185 -91.1873 -87.8289 -89.9988 3.4088800000000004 3.99834e-06 0.00334272 -0.95486 -5.325219999999999e-06 -8.776030000000001e-07 -91.1878 -89.4015 -89.9993 2.85636 2.33768e-06 0.00291702 -3.1684400000000004 1.02216e-05 6.8798e-08 88.8115 -89.7171 90.0 2.54481 2.3174699999999997e-05 0.00279704 -2.54482 -2.13223e-05 -2.91057e-07 -91.1883 -86.1973 -89.9998 6.13103 -4.18105e-06 0.00656756 -2.04542 -4.53265e-06 -5.610510000000001e-07 -101.949 -40.7242 -90.0694 10.0172 -3.199520000000001e-06 2.9010300000000002e-06 -2.6697599999999997 1.07493e-05 -2.3962900000000004e-06 -3.5899300000000007 9.8719 55.4995 -11.0692 4.08485 -6.714400000000001
0.6350000000000016 0.22237000000000062 81.2636 -110.70700000000002 -84.9239 -116.87599999999999 -164.87 -1.2454900000000002 103.82600000000001 18.929000000000006 14.2066 -61.3226 34.9209 29.3674 28.5063 28.7808 4.3412800000000006e-06 1.4068399999999997e-05 176.93400000000003 18.3577 60.4504 -51.7472 -0.94876 0.06951550000000001 79.3705 16.148199999999996 6.38775 28.7808 1.37302e-05 2.8185500000000003e-05 1.21413 4.93904 -96.0534 16.875999999999998 1.71322 -6.5775 5.189200000000001 1.42272 -6.6461 -17.2469 3.6076900000000003 -5.76316 2.76575 3.60768 -5.763209999999999 101.34700000000001 13.426099999999998 -88.7751 35.4611 -60.2014 -39.8121 -34.332 -1.19462 -91.0578 -42.8221 3.3185 -13.7301 -89.4043 88.9709 89.0941 -0.0604883 5.8114300000000546e-08 4.7447299999999996e-07 -0.0639203 -1.0345899999999999e-05 -1.94802e-07 -89.3948 88.98100000000001 89.0846 -1.1574200000000001 1.1562300000000064e-08 9.4087e-08 2.576 -2.0703e-05 1.45929e-07 -88.8572 89.3579 88.54700000000001 -1.14578 -5.0929e-06 0.000261404 1.1457700000000002 6.9188e-06 2.2698e-07 -89.4226 88.9487 89.1123 0.409285 3.75267e-06 0.0008097060000000001 -0.636601 -6.9421e-06 -5.06798e-07 104.36399999999999 40.5023 -88.8246 -7.66902 0.186182 -1.3504399999999999 -11.2634 -1.08249e-05 6.2878e-05 -86.8444 -35.3238 80.6591 -35.229 11.724399999999997 11.857400000000002 24.2413 -4.906159999999998 -100.777 -46.4582 19.4851 -50.5108 -91.1873 -87.8289 -89.9988 3.4088800000000004 3.99834e-06 0.00334272 -0.95486 -5.325219999999999e-06 -8.776030000000001e-07 -91.1878 -89.4015 -89.9993 2.85636 2.33768e-06 0.00291702 -3.1684400000000004 1.02216e-05 6.879789999999999e-08 88.8115 -89.7171 90.0 2.54481 2.3174699999999997e-05 0.00279704 -2.54482 -2.13223e-05 -2.91057e-07 -91.1883 -86.1973 -89.9998 6.13103 -4.18105e-06 0.00656756 -2.04542 -4.53265e-06 -5.610510000000001e-07 -101.949 -40.7242 -90.0694 10.0172 -3.199520000000001e-06 2.9010300000000002e-06 -2.6697599999999997 1.07493e-05 -2.3962900000000004e-06 -4.5078 9.419369999999999 56.9733 -9.98462 3.8456 -5.5815399999999995
1.2044999999999995 0.40262000000000064 81.0888 -115.45600000000002 -85.37380000000002 -122.334 -165.31099999999998 -1.6742300000000014 102.742 18.8582 14.295899999999998 -61.2826 35.0691 29.396799999999995 28.4572 28.7808 4.3412800000000006e-06 1.4068399999999997e-05 176.595 18.0333 59.1764 -51.5266 -0.7756590000000001 0.08217460000000004 79.7751 16.6044 6.48715 28.7808 1.37302e-05 2.8185500000000003e-05 1.2691 4.96178 -96.2378 16.8254 1.7792 -7.049980000000001 5.13622 1.46783 -7.121010000000001 -17.2838 3.8129199999999996 -6.194690000000001 2.7288099999999997 3.8129199999999996 -6.194699999999999 101.182 15.719700000000003 -91.3835 34.2302 -59.24699999999999 -40.7734 -33.2895 -0.840979 -91.6147 -46.3481 3.06795 -12.423100000000002 -89.4043 88.9709 89.0941 -0.0604883 5.8114300000000546e-08 4.7447299999999996e-07 -0.0639203 -1.0345899999999999e-05 -1.94802e-07 -89.3948 88.98100000000001 89.0846 -1.1574200000000001 1.1562300000000064e-08 9.4087e-08 2.576 -2.0703e-05 1.45929e-07 -88.8572 89.3579 88.54700000000001 -1.14578 -5.0929e-06 0.000261404 1.1457700000000002 6.9188e-06 2.2698e-07 -89.4226 88.9487 89.1123 0.409285 3.75267e-06 0.0008097060000000001 -0.636601 -6.9421e-06 -5.06798e-07 104.36399999999999 40.5023 -88.8246 -7.66902 0.186182 -1.3504399999999999 -11.2634 -1.08249e-05 6.2878e-05 -86.8548 -35.2882 80.6332 -33.3779 8.443869999999999 10.8644 27.4191 -5.1495000000000015 -100.11 -47.8261 21.8168 -53.9571 -91.1873 -87.8289 -89.9988 3.4088800000000004 3.99834e-06 0.00334272 -0.95486 -5.325219999999999e-06 -8.776030000000001e-07 -91.1878 -89.4015 -89.9993 2.85636 2.33768e-06 0.00291702 -3.1684400000000004 1.02216e-05 6.879789999999999e-08 88.8115 -89.7171 90.0 2.54481 2.3174699999999997e-05 0.00279704 -2.54482 -2.13223e-05 -2.91057e-07 -91.1883 -86.1973 -89.9998 6.13103 -4.18105e-06 0.00656756 -2.04542 -4.53265e-06 -5.610510000000001e-07 -101.949 -40.7242 -90.0694 10.0172 -3.199520000000001e-06 2.9010300000000002e-06 -2.6697599999999997 1.07493e-05 -2.3962900000000004e-06 -5.15734 8.9802 58.34399999999999 -9.07455 3.5884099999999997 -5.22694
1.7707000000000015 0.5787700000000009 80.9717 -123.163 -86.2212 -130.85299999999998 -165.826 -1.7693699999999986 101.486 18.725399999999997 14.7953 -61.2455 35.0769 29.3619 28.4232 28.7808 4.3412800000000006e-06 1.4068399999999997e-05 176.28400000000002 17.8134 57.7822 -51.5871 -1.0025799999999991 0.07916119999999999 79.4319 17.2298 6.8125800000000005 28.7808 1.37302e-05 2.8185500000000003e-05 1.2696800000000001 4.965669999999999 -96.42 16.8144 1.78368 -7.412170000000001 5.12303 1.45645 -7.482930000000001 -17.2823 3.92421 -6.539969999999999 2.73038 3.9241900000000003 -6.5399899999999995 101.04 17.415299999999995 -94.1876 34.3495 -57.98159999999999 -40.5636 -33.2807 -0.952868 -91.41799999999999 -50.1847 2.7273099999999997 -11.0497 -89.4043 88.9709 89.0941 -0.0604883 5.8114300000000546e-08 4.7447299999999996e-07 -0.0639203 -1.0345899999999999e-05 -1.94802e-07 -89.3948 88.98100000000001 89.0846 -1.1574200000000001 1.1562300000000064e-08 9.4087e-08 2.576 -2.0703e-05 1.45929e-07 -88.8572 89.3579 88.54700000000001 -1.14578 -5.0929e-06 0.000261404 1.1457700000000002 6.9188e-06 2.2698e-07 -89.4226 88.9487 89.1123 0.409285 3.75267e-06 0.0008097060000000001 -0.636601 -6.9421e-06 -5.06798e-07 104.36399999999999 40.5023 -88.8246 -7.66902 0.186182 -1.3504399999999999 -11.2634 -1.08249e-05 6.2878e-05 -86.5861 -35.0719 81.0679 -31.5073 5.385959999999999 9.44135 30.4413 -5.4265799999999995 -99.6549 -48.81100000000001 24.039399999999997 -57.3093 -91.1873 -87.8289 -89.9988 3.4088800000000004 3.99834e-06 0.00334272 -0.95486 -5.325219999999999e-06 -8.776030000000001e-07 -91.1878 -89.4015 -89.9993 2.85636 2.33768e-06 0.00291702 -3.1684400000000004 1.02216e-05 6.879789999999999e-08 88.8115 -89.7171 90.0 2.54481 2.3174699999999997e-05 0.00279704 -2.54482 -2.13223e-05 -2.91057e-07 -91.1883 -86.1973 -89.9998 6.13103 -4.18105e-06 0.00656756 -2.04542 -4.53265e-06 -5.610510000000001e-07 -101.949 -40.7242 -90.0694 10.0172 -3.199520000000001e-06 2.9010300000000002e-06 -2.6697599999999997 1.07493e-05 -2.3962900000000004e-06 -4.93432 9.17366 58.8865 -9.323830000000001 3.55241 -4.59585
